<svg width="189" height="189" viewBox="0 0 189 189" fill="none" xmlns="http://www.w3.org/2000/svg">
<rect x="0.5" y="0.5" width="188" height="188" rx="0.5" fill="#1C1C1C" stroke="#BDBDBD"/>
<path d="M47.92 119.888C52.208 119.888 55.664 118.832 58.288 116.72C60.976 114.608 62.32 111.504 62.32 107.408C62.32 104.144 61.328 101.424 59.344 99.248C57.36 97.008 53.904 95.216 48.976 93.872L42.352 91.952C37.488 90.608 33.776 88.336 31.216 85.136C28.656 81.936 27.376 78.032 27.376 73.424C27.376 70.352 28.08 67.472 29.488 64.784C30.96 62.096 33.168 59.92 36.112 58.256C39.12 56.592 42.928 55.76 47.536 55.76C52.656 55.76 56.784 56.72 59.92 58.64C63.056 60.496 65.232 62.928 66.448 65.936C67.664 68.944 67.952 72.176 67.312 75.632L59.248 77.36C60.08 71.408 59.472 66.832 57.424 63.632C55.44 60.432 51.984 58.832 47.056 58.832C43.152 58.832 40.08 59.888 37.84 62C35.6 64.048 34.48 67.056 34.48 71.024C34.48 74.16 35.376 76.848 37.168 79.088C38.96 81.264 42.128 82.992 46.672 84.272L53.296 86.192C63.984 89.136 69.328 95.376 69.328 104.912C69.328 108.304 68.528 111.376 66.928 114.128C65.392 116.816 63.024 118.96 59.824 120.56C56.688 122.16 52.72 122.96 47.92 122.96C44.592 122.96 41.392 122.448 38.32 121.424C35.312 120.4 32.72 118.64 30.544 116.144C28.432 113.648 27.024 110.192 26.32 105.776L32.08 103.856C32.4 108.08 33.328 111.344 34.864 113.648C36.4 115.952 38.32 117.584 40.624 118.544C42.928 119.44 45.36 119.888 47.92 119.888ZM90.7858 120.592C92.9618 120.592 94.7324 119.952 96.0978 118.672C97.4631 117.349 98.2524 115.643 98.4658 113.552C98.7218 111.461 98.2311 109.243 96.9938 106.896L101.154 104.272L109.026 117.584C109.708 118.779 110.199 119.483 110.498 119.696C110.796 119.867 111.287 119.995 111.97 120.08L115.106 120.4V122H105.762L100.642 113.104C100.599 115.707 99.6818 117.947 97.8898 119.824C96.1404 121.701 93.6231 122.64 90.3378 122.64C86.7111 122.64 83.7244 121.787 81.3778 120.08C79.0311 118.331 77.8578 115.835 77.8578 112.592C77.8578 109.904 78.7751 107.557 80.6098 105.552C82.4871 103.504 85.1111 101.456 88.4818 99.408L89.1858 98.96C86.1991 97.296 83.9804 95.5253 82.5298 93.648C81.0791 91.7707 80.3538 89.7867 80.3538 87.696C80.3538 86.032 80.8018 84.4533 81.6978 82.96C82.5938 81.424 83.8738 80.1867 85.5378 79.248C87.2444 78.3093 89.2284 77.84 91.4897 77.84C93.8364 77.84 95.8204 78.3093 97.4418 79.248C99.1058 80.144 100.386 81.3387 101.282 82.832C102.178 84.3253 102.626 85.9467 102.626 87.696C102.626 89.4027 102.22 90.896 101.41 92.176C100.642 93.456 99.5751 94.608 98.2098 95.632C96.8871 96.6133 95.4151 97.616 93.7938 98.64L90.2098 100.944C88.1191 102.267 86.4551 103.845 85.2178 105.68C84.0231 107.472 83.4258 109.691 83.4258 112.336C83.4258 115.28 84.1511 117.392 85.6018 118.672C87.0951 119.952 88.8231 120.592 90.7858 120.592ZM85.9218 87.376C85.9218 88.9547 86.2418 90.6613 86.8818 92.496C87.5218 94.288 88.8871 96.0587 90.9778 97.808L92.1938 96.976C93.7724 95.9947 94.9671 94.736 95.7778 93.2C96.6311 91.664 97.0578 89.7867 97.0578 87.568C97.0578 84.9653 96.5458 83.0453 95.5218 81.808C94.4978 80.528 93.1751 79.888 91.5538 79.888C89.9324 79.888 88.5884 80.4853 87.5218 81.68C86.4551 82.832 85.9218 84.7307 85.9218 87.376ZM115.467 56.72H166.539V72.368H164.043L161.259 62.288C161.067 61.52 160.843 60.976 160.587 60.656C160.395 60.272 159.979 60.048 159.339 59.984C158.699 59.856 157.611 59.792 156.075 59.792H145.227V114.224C145.227 116.464 145.323 117.776 145.515 118.16C145.707 118.544 146.315 118.8 147.339 118.928L152.619 119.504V122H129.483V119.504L134.763 118.928C135.787 118.8 136.395 118.544 136.587 118.16C136.779 117.776 136.875 116.464 136.875 114.224V59.792H125.931C124.459 59.792 123.371 59.856 122.667 59.984C122.027 60.048 121.579 60.272 121.323 60.656C121.131 60.976 120.939 61.52 120.747 62.288L117.963 72.368H115.467V56.72Z" fill="url(#paint0_radial_2_43)"/>
<rect x="22" y="134" width="146" height="3" rx="1.5" fill="#707070"/>
<defs>
<radialGradient id="paint0_radial_2_43" cx="0" cy="0" r="1" gradientTransform="matrix(-20.825 -34.1026 52.7692 -31.8541 116.325 117.316)" gradientUnits="userSpaceOnUse">
<stop stop-color="#939393"/>
<stop offset="1" stop-color="#F3F3F3"/>
</radialGradient>
</defs>
</svg>
